<?xml version="1.0" encoding="UTF-8" standalone="no"?>
<!-- Created with Inkscape (http://www.inkscape.org/) -->

<svg
   xmlns:dc="http://purl.org/dc/elements/1.1/"
   xmlns:cc="http://creativecommons.org/ns#"
   xmlns:rdf="http://www.w3.org/1999/02/22-rdf-syntax-ns#"
   xmlns:svg="http://www.w3.org/2000/svg"
   xmlns="http://www.w3.org/2000/svg"
   xmlns:xlink="http://www.w3.org/1999/xlink"
   xmlns:sodipodi="http://sodipodi.sourceforge.net/DTD/sodipodi-0.dtd"
   xmlns:inkscape="http://www.inkscape.org/namespaces/inkscape"
   width="617.14282"
   height="911.47729"
   id="svg2"
   version="1.1"
   inkscape:version="0.48.1 "
   sodipodi:docname="Italia.svg">
  <defs
     id="defs4" />
  <sodipodi:namedview
     id="base"
     pagecolor="#ffffff"
     bordercolor="#666666"
     borderopacity="1.0"
     inkscape:pageopacity="0.0"
     inkscape:pageshadow="2"
     inkscape:zoom="0.5"
     inkscape:cx="-857.2072"
     inkscape:cy="594.02073"
     inkscape:document-units="px"
     inkscape:current-layer="layer1"
     showgrid="false"
     inkscape:window-width="1920"
     inkscape:window-height="1138"
     inkscape:window-x="-8"
     inkscape:window-y="-8"
     inkscape:window-maximized="1"
     fit-margin-top="0"
     fit-margin-left="0"
     fit-margin-right="0"
     fit-margin-bottom="0" />
  <metadata
     id="metadata7">
    <rdf:RDF>
      <cc:Work
         rdf:about="">
        <dc:format>image/svg+xml</dc:format>
        <dc:type
           rdf:resource="http://purl.org/dc/dcmitype/StillImage" />
        <dc:title />
      </cc:Work>
    </rdf:RDF>
  </metadata>
  <g
     inkscape:label="Calque 1"
     inkscape:groupmode="layer"
     id="layer1"
     transform="translate(147.14287,-66.535689)">
    <path
       style="color:#000000;fill:#014fa2;fill-opacity:1;fill-rule:nonzero;stroke:none;stroke-width:3;marker:none;visibility:visible;display:inline;overflow:visible;enable-background:accumulate"
       d="m -147.14287,66.535689 617.14283,0 0,717.597881 -308.57142,193.87942 -308.57141,-193.87942 z"
       id="rect2996"
       inkscape:connector-curvature="0"
       sodipodi:nodetypes="cccccc" />
    <path
       sodipodi:nodetypes="cccccc"
       inkscape:connector-curvature="0"
       id="path2999"
       d="m -104.28573,263.80109 143.5714,0 0,501.14496 -71.78569,40.85269 -71.78571,-40.85269 z"
       style="color:#000000;fill:#00a650;fill-opacity:1;fill-rule:nonzero;stroke:none;stroke-width:3;marker:none;visibility:visible;display:inline;overflow:visible;enable-background:accumulate" />
    <path
       style="color:#000000;fill:#eb1e25;fill-opacity:1;fill-rule:nonzero;stroke:none;stroke-width:3;marker:none;visibility:visible;display:inline;overflow:visible;enable-background:accumulate"
       d="m 287.71427,263.80109 143.5714,0 0,501.14496 -71.78569,40.85269 -71.78571,-40.85269 z"
       id="path3001"
       inkscape:connector-curvature="0"
       sodipodi:nodetypes="cccccc" />
    <path
       sodipodi:nodetypes="cccccc"
       inkscape:connector-curvature="0"
       id="path3003"
       d="m 56.35893,263.80109 214.28208,0 0,599.21633 -107.14103,70.84734 -107.14105,-70.84734 z"
       style="color:#000000;fill:#ffffff;fill-opacity:1;fill-rule:nonzero;stroke:none;stroke-width:3;marker:none;visibility:visible;display:inline;overflow:visible;enable-background:accumulate" />
    <path
       sodipodi:type="arc"
       style="color:#000000;fill:#ffffff;fill-opacity:1;fill-rule:nonzero;stroke:#ffffff;stroke-width:0;stroke-linecap:round;stroke-linejoin:miter;stroke-miterlimit:4;stroke-opacity:1;stroke-dasharray:none;stroke-dashoffset:0;marker:none;visibility:visible;display:inline;overflow:visible;enable-background:accumulate"
       id="path3786"
       sodipodi:cx="-602.85712"
       sodipodi:cy="479.50504"
       sodipodi:rx="152.85715"
       sodipodi:ry="152.85715"
       d="m -449.99997,479.50504 c 0,84.42067 -68.43648,152.85714 -152.85715,152.85714 -84.42067,0 -152.85714,-68.43647 -152.85714,-152.85714 0,-84.42068 68.43647,-152.85715 152.85714,-152.85715 84.42067,0 152.85715,68.43647 152.85715,152.85715 z"
       transform="matrix(1.0560748,0,0,1.0560748,796.66221,-11.173846)" />
    <path
       style="fill:#eb1e25;fill-opacity:1;stroke:none"
       d="m 122.14286,350.93361 c 166.8133,-13.29096 147.71293,185.51736 62.32143,235.35714 190.79527,19.50921 139.52965,-286.7486 -62.32143,-235.35714 z"
       id="path3005"
       inkscape:connector-curvature="0"
       sodipodi:nodetypes="ccc" />
    <path
       sodipodi:nodetypes="ccc"
       inkscape:connector-curvature="0"
       id="path3775"
       d="M 59.5436,600.18369 C -33.2021,462.36462 144.36416,379.50186 228.25839,428.53318 151.55199,253.54502 -82.56144,451.07126 59.5436,600.18369 z"
       style="fill:#00a650;fill-opacity:1;stroke:none" />
    <path
       sodipodi:nodetypes="ccc"
       inkscape:connector-curvature="0"
       id="path3777"
       d="M 301.30423,536.43303 C 232.03041,687.54307 75.33942,571.5975 74.88969,472.7264 -33.30738,628.20535 246.94298,736.93693 301.30423,536.43303 z"
       style="fill:#014fa2;fill-opacity:1;stroke:none" />
    <path
       style="fill:#d8c994;fill-opacity:1"
       d="m -5.6875,136.99107 0,14.22691 21.5625,0 0,69.81327 15.65625,0 0.84375,-69.81327 21.15625,0 0.5,-14.22691 -59.71875,0 z m -46.21875,0.15364 0.5625,83.88654 15.5,0 0.5,-83.88654 -16.5625,0 z m 310,0 0.5625,83.88654 15.5,0 0.5,-83.88654 -16.5625,0 z m -158.53125,0.43019 -27.28125,83.45635 16.8125,0 5.125,-16.90022 27.5625,0 5.28125,16.90022 16.4375,0 -27.3125,-83.45635 -16.625,0 z m 74.4375,0 0,83.45635 49.75,0 0,-15.79402 -33.71875,0 -0.65625,-67.66233 -15.375,0 z m 158.5625,0 -27.28125,83.45635 16.84375,0 5.09375,-16.90022 27.59375,0 5.28125,16.90022 16.40625,0 -27.3125,-83.45635 -16.625,0 z m -224.65625,19.69643 9.5,32.81716 -18.4375,0 8.9375,-32.81716 z m 233,0 9.5,32.81716 -18.4375,0 8.9375,-32.81716 z"
       id="path3063"
       inkscape:connector-curvature="0" />
    <g
       id="g3878">
      <path
         sodipodi:nodetypes="ccccccccccc"
         inkscape:connector-curvature="0"
         id="path3853"
         d="m -32.566275,687.36218 10.4375,25.125 29.5625,1.875 -21.875,21.06886 6.875,27.99364 -24.875,-15.1875 -24.79493,15.1875 6.69434,-27.99364 -21.89192,-21.06886 29.13508,-1.9375 z"
         style="fill:#b67c13;fill-opacity:1;stroke:none" />
      <path
         sodipodi:nodetypes="cccccccccccccccccccccc"
         inkscape:connector-curvature="0"
         id="path3859"
         d="m -32.56253,687.375 0.0625,39.96875 10.375,-14.84375 z m 0.0625,39.96875 -10.78125,-14.90625 -29.15625,1.9375 39.9375,13 z m 0,0.0312 0,0.0312 0.0625,20.84375 24.875,15.1875 -24.90625,-36.03125 18.03125,8.02489 21.875,-21.05614 -39.90625,13 z m 0,0.0312 -18.03809,8.02489 -6.68066,28.00636 z"
         style="fill:#d8c994;fill-opacity:1;stroke:none" />
    </g>
    <use
       x="0"
       y="0"
       xlink:href="#g3878"
       id="use3884"
       transform="translate(196,0)"
       width="744.09448"
       height="1052.3622" />
    <use
       x="0"
       y="0"
       xlink:href="#g3878"
       id="use3886"
       transform="translate(392,0)"
       width="744.09448"
       height="1052.3622" />
    <use
       x="0"
       y="0"
       xlink:href="#g3878"
       id="use3888"
       transform="translate(196,115)"
       width="744.09448"
       height="1052.3622" />
    <path
       style="fill:#b67c13;fill-opacity:1;stroke:none"
       d="m 172.07811,464.875 c -8.49344,0 -18.09375,4.37862 -18.09375,17.875 l 0.0937,15.90625 c 0,12.35263 9.59385,18.03125 18,18.03125 10.47254,0 18.21875,-5.84487 18.21875,-20.46875 0,-1.13112 -0.0577,-7.75007 -0.15625,-8.84375 l -17.9375,0 0,6.75 9.21875,0 c 0,11.21599 -2.2521,14.5625 -9.34375,14.5625 -7.09164,0 -9.5,-5.07509 -9.5,-10.03125 l 0,-15.90625 c -0.0278,-6.797 4.638,-10.37513 9.5,-10.375 3.33745,9e-5 7.50699,0.86128 10.0625,3.5 l 3.8125,-4.625 c -3.57821,-4.04481 -8.91333,-6.375 -13.875,-6.375 z m 46,0 c -8.49344,0 -18.09375,4.37862 -18.09375,17.875 l 0.0937,15.90625 c 0,12.35263 9.59386,18.03125 18,18.03125 6.09175,0 10.84694,-1.96715 13.75,-6.5 l -4.6875,-6.03125 c -1.65832,3.9528 -4.67947,4.53125 -9.0625,4.53125 -7.09164,0 -9.75,-5.07509 -9.75,-10.03125 l 0,-15.90625 c -0.0278,-6.797 4.88801,-10.37513 9.75,-10.375 3.33745,9e-5 7.50699,0.86128 10.0625,3.5 l 3.8125,-4.625 c -3.57821,-4.04481 -8.91333,-6.375 -13.875,-6.375 z m -123.031235,0.1875 0,50.3125 8.499985,0 0,-21.4375 21.25,0 0,-6.96875 -21.25,0 0,-14.375 23.5,0 0,-7.53125 z m 39.999985,0 0,50.3125 9.5,0 0,-50.3125 z"
       id="path3006"
       inkscape:connector-curvature="0"
       sodipodi:nodetypes="cccssccccsscscccccccsccsscscccccccccccccccccccc" />
  </g>
</svg>
